/* XPM */
static char *_19841f595294d97f27aab87d53e9a7bsFTekTNZvcfcQBeH[] = {
/* columns rows colors chars-per-pixel */
"32 32 8 1 ",
"  c #B0AEAE",
". c #B1A2A2",
"X c #979797",
"o c #968E8E",
"O c #89817E",
"+ c #817F7F",
"@ c #726B69",
"# c #645B5B",
/* pixels */
"@#+OoO.O@#+OX++XX@OO@X+@O++X++++",
"#@+O@oO@#@X X+XX++@oO@@@@@X X+@+",
"+@@+O@@@@+ XO@+X+@@O+#@oOOX+O@#X",
"X++++@++@@OX+@++@@#@##+O@OOOO@+ ",
"X@+O@++@#++O@O++o++#@OOO+o@O@O X",
"O@+@#@+#@O@@O+OoOOXO++O+oOO@@OX ",
"@+OXO##@O+oo+@+oo@O+XX@+ooO@+++O",
"+O@+O@++OOo++@O+O@+@+X+@+OOO+XX+",
"@+@@@+O.O+@+@+@O@+++@@##+@X+OX@+",
"+@@++O.oo@+@@+O++XO@@##@@X+X+@++",
"@#+O@o..O#@@+X+@XX+@+ XO+XX+@+O@",
"#@OO+@.o@#@OOO@+X+@+X +X+@X+@+@@",
"@+@+@#oO#@oO+ XX@++X X+O#@+@@O+@",
"OO@##+@+@+O@X  X+@OOXO@#@+@@O+@+",
"XXO@+XO++XO+ X++@@+@@@@+OO+++X+O",
"OXXOOO@+XXXO++@@@+OO@@+OOXX+XXOX",
"XOO@+X+@X+O+@XO@OO@OO@#+X X O@+@",
"@O@OXXX@@++@+O+OOX+@##@+O  XO@++",
"@++OX+@@+ X+OOO@XXX++@O++OXO@O+@",
"++O@+@+O X X++@@X++@O+o@+@OOO+@@",
"#+@@OO+X OXO@@@#@+XX+@+@+O@@+X+@",
"#@++O@XOXXO@+##@+XX+O+@+oOX+XX+#",
"@+@+@XO+OO+X  ++@+O@@OO+O@O@X+@#",
"++++O X@+OX  X@++@@@OO+@+X @+@@X",
"X+@+ XOO@+X+@+ooO+@.o++@O XO@+X+",
"+@@+OO+@#+@@+O+oO@...o@@XXO+@+XX",
"@@OO@+##+++X+@OO+@.ooO+++O@+O++X",
"OO@O@#@o++XOX+@+@+o.O@+@OOO@oo++",
"@@+XOO+O@+XXO+@+O++o@+O+@O@#o+@X",
"OXXO@O++OO@+@@OoO@+oOO@O@##@OOXX",
"@OX@o.Oo@+O@@O+@@O+++@+O+@OO+@X+",
"+@@o..o@@@++O@++OO@OO+X+@++@@++@"
};
